<svg width="52" height="52" viewBox="0 0 52 52" fill="none" xmlns="http://www.w3.org/2000/svg">
<path d="M26.9411 5.04542L26.9909 4.99698C15.9142 4.89013 4.70432 13.8363 4.89523 26.9844C5.08043 39.7038 15.3266 48.6727 27.2837 48.1228C28.856 48.053 30.4148 47.7994 31.9281 47.367C33.8108 48.8451 36.9329 49.8295 38.9759 49.0011C39.8093 48.6556 40.553 48.1007 41.1748 47.3912C43.4771 45.2884 43.8268 41.6983 43.2833 38.5726C46.7125 33.7053 47.682 28.1063 46.8001 22.895C45.1788 13.3106 37.2969 5.03972 26.9411 5.04542ZM37.678 9.76816C37.6373 9.85126 37.6196 9.94374 37.6267 10.036C37.8034 11.7762 35.9243 12.9971 34.4056 12.1423C33.2837 11.5098 32.6675 9.87216 31.1645 9.32366C28.4113 8.31572 26.3748 11.5233 24.1445 11.2918C23.294 11.2014 22.4563 10.536 22.0096 9.59649C21.6748 8.89271 21.526 8.02366 21.5281 6.91528C27.2766 5.20783 32.9282 6.25139 37.678 9.76816ZM7.81221 20.7957C11.5569 19.6695 16.6066 22.028 12.9474 23.9293C12.0962 24.3581 11.2214 24.7534 10.7356 25.5633C10.1194 26.5934 10.4393 28.0401 11.4351 28.7232C11.8169 28.9832 12.3163 29.1691 12.3711 29.38C12.4993 29.8701 10.0276 31.5056 7.3029 30.6992C7.01725 29.3854 6.85791 28.0472 6.82706 26.7031C6.77416 24.711 7.02322 22.7225 7.56575 20.805C7.64746 20.8217 7.73199 20.8185 7.81221 20.7957ZM17.9935 39.567C19.2586 37.2377 21.9242 36.5838 22.2703 36.9969C22.4897 37.2598 22.1371 37.9871 22.0317 38.5968C21.7397 40.2501 23.3488 41.8792 25.0093 41.61C26.9112 41.2994 27.8051 39.0748 29.2619 38.8882C29.9514 38.8027 30.7535 39.2208 31.4131 40.0165C32.3733 41.1712 32.9866 43.5696 32.8328 45.3404C30.9172 46.0379 28.9001 46.4164 26.862 46.4609C23.6943 46.5323 20.5586 45.8149 17.7371 44.3731C17.3339 42.9534 17.3311 40.7872 17.9935 39.567ZM31.5997 30.0916C31.5662 29.2311 31.4622 28.3934 31.3333 27.2743C31.3237 27.1963 31.2969 27.1213 31.2548 27.0549C31.2126 26.9885 31.1562 26.9323 31.0897 26.8904C30.3895 26.2279 29.1678 24.9123 27.1113 23.4164C27.0489 23.3708 26.9773 23.3394 26.9016 23.3242C26.8258 23.309 26.7476 23.3104 26.6724 23.3284C26.5973 23.3463 26.5269 23.3803 26.4662 23.4281C26.4054 23.4759 26.3558 23.5363 26.3207 23.6051C24.9145 26.3626 24.0305 28.9804 23.4742 32.017C23.0076 31.782 22.9791 31.7677 22.8894 31.7179C23.4464 27.8634 23.5461 24.2156 23.5988 20.8036C23.6001 20.7206 23.5821 20.6384 23.5461 20.5636C23.5101 20.4888 23.4572 20.4234 23.3916 20.3726C21.6193 19.0007 20.0009 17.851 18.4487 16.8608C18.1581 15.9633 17.9551 15.8222 18.0797 15.6313C18.1766 15.4817 18.2343 15.5729 19.1817 15.4711C21.184 16.8053 23.0724 17.9713 24.7948 18.9387C24.9402 19.0199 25.1154 19.0299 25.2693 18.9629C28.3109 17.6487 31.7821 16.5488 35.3273 15.7738C35.3708 15.8415 35.4427 15.959 35.484 16.0302C32.9752 17.2554 30.4137 19.0697 28.0416 21.3179C27.9902 21.3665 27.9489 21.4249 27.9202 21.4897C27.8916 21.5545 27.8761 21.6243 27.8747 21.6951C27.8733 21.7659 27.886 21.8363 27.9121 21.9021C27.9382 21.968 27.9772 22.028 28.0267 22.0786C29.4407 23.5318 30.7193 24.7299 31.8234 25.6374C32.3021 26.0278 32.7893 25.3525 35.452 24.8225C35.5638 24.9543 35.6814 25.1096 35.7975 25.2748C33.4254 26.785 32.6119 27.419 31.8156 30.1828C31.7437 30.1522 31.6718 30.1218 31.5997 30.0916ZM34.6271 27.3826C39.3271 32.4601 44.9837 42.0587 40.1213 46.9453C43.4742 41.766 38.728 33.8812 33.4539 28.8543C33.7311 28.2829 34.1319 27.7802 34.6271 27.3826ZM40.0686 42.2012C40.1982 43.613 40.0116 44.6516 39.6804 45.485C38.2735 47.5323 35.6885 47.7331 33.9746 46.6568C36.0204 45.7977 37.9138 44.5412 39.305 42.8701C39.5664 42.6564 39.8164 42.4291 40.0686 42.2012ZM36.2106 26.2799C36.4143 26.1467 36.6074 26.0256 36.7719 25.9309C36.7919 25.9231 36.8133 25.9259 36.8318 25.9152C36.9531 25.8419 37.0403 25.7235 37.0744 25.5859C37.1084 25.4484 37.0865 25.3029 37.0134 25.1815C36.8645 24.9351 36.4699 24.3125 36.0233 23.8659C35.9628 23.8049 35.8884 23.7595 35.8065 23.7337C35.7246 23.7079 35.6376 23.7024 35.5531 23.7177C34.355 23.9278 33.2936 24.2733 32.2736 24.6224C31.354 23.8495 30.314 22.8764 29.1735 21.7225C31.515 19.5712 34.0238 17.8559 36.4557 16.7468C36.5735 16.6918 36.667 16.5953 36.7183 16.4757C36.7695 16.3562 36.7749 16.2219 36.7335 16.0986C36.7235 16.0082 36.6898 15.9219 36.6359 15.8486C36.289 15.3998 36.014 14.5386 35.4178 14.6619C31.7913 15.4333 28.2261 16.5431 25.089 17.8773C20.0785 15.0365 19.7637 14.3256 19.2472 14.3869C18.2678 14.5116 17.6509 14.3377 17.1865 15.0444C17.0735 15.2168 17.0031 15.4136 16.9809 15.6185C16.9587 15.8234 16.9855 16.0307 17.059 16.2233C18.0484 18.6146 16.4414 16.3729 22.5261 21.0543C22.4691 24.5839 22.3601 28.08 21.7817 31.9023C21.6805 32.5741 22.8181 32.7557 23.4535 33.2365C23.5215 33.2886 23.6012 33.3233 23.6856 33.3377C23.77 33.3521 23.8567 33.3458 23.9381 33.3193C24.0195 33.2928 24.0933 33.2469 24.1531 33.1856C24.2129 33.1243 24.2569 33.0494 24.2813 32.9673C24.7443 32.5128 24.4878 29.7974 26.9895 24.6587C28.0765 25.4893 29.1194 26.421 30.2969 27.6091C30.336 28.038 30.3945 28.2103 30.5156 30.1165C30.5676 30.9272 30.6131 30.8303 31.3476 31.1451C31.8939 31.3823 31.9288 31.4066 32.1147 31.3802C32.2507 31.4026 32.39 31.3713 32.5032 31.2929C32.6165 31.2145 32.6948 31.0951 32.7216 30.9599C32.7886 30.6266 32.8983 30.274 33.0194 29.9285C36.2313 33.0485 38.9673 36.4363 39.8813 40.9283C38.1497 42.6003 36.1297 43.945 33.9191 44.8974C33.9404 42.9363 33.2673 40.5749 32.2358 39.3334C31.3276 38.2392 30.1914 37.6936 29.1251 37.8275C27.1954 38.0761 26.3021 40.3171 24.8369 40.5557C23.9073 40.7096 22.92 39.7137 23.0831 38.782C23.2056 38.0982 23.7556 37.1052 23.0888 36.3109C22.6856 35.8266 21.9904 35.6798 21.1306 35.8949C19.4203 36.3252 17.8967 37.5062 17.054 39.0563C16.3943 40.2722 16.2754 42.1442 16.4998 43.6793C12.2543 41.0964 9.0132 36.9193 7.59994 31.8788C9.36651 32.2215 11.1402 31.8126 12.4943 30.8837C13.2337 30.3751 13.5657 29.7297 13.404 29.1093C13.2081 28.3614 12.458 28.1263 12.0377 27.8414C11.5106 27.4802 11.3261 26.6553 11.6524 26.1125C11.9722 25.5769 12.6639 25.2677 13.4403 24.8766C16.145 23.4719 15.7077 21.1462 13.2345 20.0919C11.5854 19.3867 9.6778 19.2443 7.92903 19.6653C9.97342 13.894 14.7054 9.32651 20.4525 7.26503C20.538 10.5603 22.3017 12.1701 24.0291 12.3546C26.5557 12.6182 28.7817 9.59079 30.7969 10.3266C31.9459 10.7469 32.5436 12.3197 33.8806 13.0726C35.8082 14.1597 38.4181 13.0157 38.6796 10.561C42.3566 13.671 44.8319 18.0533 45.6988 22.7682C46.5764 27.5422 45.8057 32.6567 42.9635 37.1358C41.8394 33.0243 38.9374 29.4733 36.2106 26.2799Z" fill="#0BCD82"/>
<path d="M41.9756 20.0435C41.5931 19.7778 41.5788 19.7657 41.6159 19.2514C41.633 19.0099 41.6529 18.7357 41.5788 18.4486C41.197 16.9598 39.0394 16.8722 38.4325 18.4386C38.0051 19.5434 36.0839 20.0763 36.98 22.3849C37.7529 24.3766 40.6813 25.1602 42.2441 23.6792C42.7257 23.2233 43.0049 22.5366 42.9914 21.8436C42.9729 20.9816 42.5818 20.4631 41.9756 20.0435ZM37.9766 21.9981C37.3462 20.3747 38.8349 20.3562 39.429 18.8247C39.5359 18.549 39.8087 18.3624 40.0466 18.3624C40.2653 18.3624 40.4947 18.5227 40.5438 18.7136C40.6307 19.0534 40.3892 19.661 40.6955 20.2479C41.1009 21.0244 41.9037 20.889 41.9229 21.8649C41.9614 23.8516 38.6903 23.8423 37.9766 21.9981ZM37.6974 6.09824L38.0877 3.30591C38.1007 3.16879 38.0602 3.03197 37.9748 2.92391C37.8894 2.81586 37.7657 2.7449 37.6293 2.72581C37.4929 2.70672 37.3544 2.74096 37.2426 2.82142C37.1308 2.90188 37.0544 3.02234 37.0292 3.15774L36.6388 5.95078C36.542 6.651 37.5991 6.79846 37.6974 6.09824ZM41.0047 4.37796L39.2623 6.87752C38.8542 7.46235 39.7439 8.05643 40.1385 7.48799L41.8809 4.98914C41.9227 4.93169 41.9527 4.86646 41.969 4.79729C41.9853 4.72811 41.9877 4.65637 41.9759 4.58628C41.9642 4.51618 41.9385 4.44913 41.9005 4.38906C41.8626 4.32899 41.813 4.2771 41.7547 4.23644C41.6964 4.19578 41.6306 4.16715 41.5611 4.15225C41.4916 4.13734 41.4198 4.13645 41.3499 4.14963C41.2801 4.16281 41.2136 4.1898 41.1543 4.229C41.095 4.26821 41.0442 4.31885 41.0047 4.37796ZM42.1587 10.1364L45.2416 7.82421C45.355 7.73919 45.4299 7.61263 45.45 7.47237C45.47 7.3321 45.4335 7.18962 45.3485 7.07626C45.2635 6.96291 45.1369 6.88797 44.9966 6.86793C44.8564 6.8479 44.7139 6.8844 44.6005 6.96942L41.5169 9.28235C40.9477 9.70903 41.6009 10.5567 42.158 10.1371L42.1587 10.1364Z" fill="#0BCD82"/>
</svg>
